HIERARCHY
ROOT Character1_Hips
{
  OFFSET 65.0335 98.2072 -30.3279
  CHANNELS 6 Xposition Yposition Zposition Zrotation Xrotation Yrotation
  JOINT Character1_Spine
  {
    OFFSET 0 8.754 -1.339
    CHANNELS 3 Zrotation Xrotation Yrotation
    JOINT Character1_Spine1
    {
      OFFSET 0 10.855 -0.645
      CHANNELS 3 Zrotation Xrotation Yrotation
      JOINT Character1_LeftShoulder
      {
        OFFSET 1.467 27.745 1.178
        CHANNELS 3 Zrotation Xrotation Yrotation
        JOINT Character1_LeftArm
        {
          OFFSET 18.4859 -1.858 0.275001
          CHANNELS 3 Zrotation Xrotation Yrotation
          JOINT Character1_LeftForeArm
          {
            OFFSET 31.7982 2.36 2.92101
            CHANNELS 3 Zrotation Xrotation Yrotation
            JOINT Character1_LeftHand
            {
              OFFSET 29.0015 1.642 2.1119
              CHANNELS 3 Zrotation Xrotation Yrotation
              End Site
              {
                OFFSET 0.269758 0.141128 0.89614
              }
            }
            JOINT L_Radius_RIGMESH
            {
              OFFSET 0.592911 0.209926 -0.435177
              CHANNELS 3 Zrotation Xrotation Yrotation
              End Site
              {
                OFFSET 0 0 0
              }
            }
          }
          JOINT L_Humerus_RIGMESH
          {
            OFFSET 0.000383861 -0.000257932 -6.47351e-005
            CHANNELS 3 Zrotation Xrotation Yrotation
            End Site
            {
              OFFSET 0 0 0
            }
          }
        }
        JOINT L_Shoulder_RIGMESH
        {
          OFFSET 3.24498e-005 -0.000608592 -0.000527677
          CHANNELS 3 Zrotation Xrotation Yrotation
          End Site
          {
            OFFSET 0 0 0
          }
        }
      }
      JOINT Character1_RightShoulder
      {
        OFFSET -1.467 27.745 1.178
        CHANNELS 3 Zrotation Xrotation Yrotation
        JOINT Character1_RightArm
        {
          OFFSET -18.486 -1.858 0.275
          CHANNELS 3 Zrotation Xrotation Yrotation
          JOINT Character1_RightForeArm
          {
            OFFSET -31.798 2.35963 2.92082
            CHANNELS 3 Zrotation Xrotation Yrotation
            JOINT Character1_RightHand
            {
              OFFSET -29.0007 1.64166 2.112
              CHANNELS 3 Zrotation Xrotation Yrotation
              End Site
              {
                OFFSET 161.773 0.141827 0.896322
              }
            }
            JOINT R_Radius_RIGMESH
            {
              OFFSET 104.095 0.21029 -0.434995
              CHANNELS 3 Zrotation Xrotation Yrotation
              End Site
              {
                OFFSET 0 0 0
              }
            }
          }
          JOINT R_Humerus_RIGMESH
          {
            OFFSET 39.9064 -0.000257932 -6.47351e-005
            CHANNELS 3 Zrotation Xrotation Yrotation
            End Site
            {
              OFFSET 0 0 0
            }
          }
        }
        JOINT R_Shoulder_RIGMESH
        {
          OFFSET -3.24498e-005 -0.000608592 -0.000527677
          CHANNELS 3 Zrotation Xrotation Yrotation
          End Site
          {
            OFFSET 0 0 0
          }
        }
      }
      JOINT Character1_Neck
      {
        OFFSET 0 30.836 0.626
        CHANNELS 3 Zrotation Xrotation Yrotation
        JOINT Character1_Head
        {
          OFFSET 0 8.074 3.498
          CHANNELS 3 Zrotation Xrotation Yrotation
          End Site
          {
            OFFSET 0 -0.00153379 1.54668e-005
          }
        }
        JOINT Neck_RIGMESH
        {
          OFFSET -0.550491 0.102169 -0.523555
          CHANNELS 3 Zrotation Xrotation Yrotation
          End Site
          {
            OFFSET 0 0 0
          }
        }
      }
      JOINT Torso_RIGMESH
      {
        OFFSET 0 -0.000828813 -0.000380861
        CHANNELS 3 Zrotation Xrotation Yrotation
        End Site
        {
          OFFSET 0 0 0
        }
      }
    }
    JOINT Spine_RIGMESH
    {
      OFFSET -0.0408326 0.0667574 0.244719
      CHANNELS 3 Zrotation Xrotation Yrotation
      End Site
      {
        OFFSET 0 0 0
      }
    }
  }
  JOINT Character1_RightUpLeg
  {
    OFFSET -9.035 -4.63425 1.845
    CHANNELS 3 Zrotation Xrotation Yrotation
    JOINT Character1_RightLeg
    {
      OFFSET -0.919521 -40.345 1.155
      CHANNELS 3 Zrotation Xrotation Yrotation
      JOINT Character1_RightFoot
      {
        OFFSET 1.95452 -45.2655 -4.18888
        CHANNELS 3 Zrotation Xrotation Yrotation
        JOINT Character1_RightToeBase
        {
          OFFSET 1.87056 -6.69517 14.7145
          CHANNELS 3 Zrotation Xrotation Yrotation
          End Site
          {
            OFFSET 0 0 0
          }
        }
        JOINT R_Talus_RIGMESH
        {
          OFFSET 8 -7.75529 4.18888
          CHANNELS 3 Zrotation Xrotation Yrotation
          End Site
          {
            OFFSET 0 0 0
          }
        }
      }
      JOINT R_Tibia_RIGMESH
      {
        OFFSET 0 0 0
        CHANNELS 3 Zrotation Xrotation Yrotation
        End Site
        {
          OFFSET 0 0 0
        }
      }
    }
    JOINT R_Femur_RIGMESH
    {
      OFFSET 0 0 0
      CHANNELS 3 Zrotation Xrotation Yrotation
      End Site
      {
        OFFSET 0 0 0
      }
    }
  }
  JOINT Character1_LeftUpLeg
  {
    OFFSET 9.035 -4.63425 1.845
    CHANNELS 3 Zrotation Xrotation Yrotation
    JOINT Character1_LeftLeg
    {
      OFFSET 0.919521 -40.345 1.155
      CHANNELS 3 Zrotation Xrotation Yrotation
      JOINT Character1_LeftFoot
      {
        OFFSET -1.95452 -45.2655 -4.18888
        CHANNELS 3 Zrotation Xrotation Yrotation
        JOINT Character1_LeftToeBase
        {
          OFFSET -1.87056 -6.69517 14.7145
          CHANNELS 3 Zrotation Xrotation Yrotation
          End Site
          {
            OFFSET 0 0 0
          }
        }
        JOINT L_Talus_RIGMESH
        {
          OFFSET -8 -7.75529 4.18888
          CHANNELS 3 Zrotation Xrotation Yrotation
          End Site
          {
            OFFSET 0 0 0
          }
        }
      }
      JOINT L_Tibia_RIGMESH
      {
        OFFSET 0 0 0
        CHANNELS 3 Zrotation Xrotation Yrotation
        End Site
        {
          OFFSET 0 0 0
        }
      }
    }
    JOINT L_Femur_RIGMESH
    {
      OFFSET 0 0 0
      CHANNELS 3 Zrotation Xrotation Yrotation
      End Site
      {
        OFFSET 0 0 0
      }
    }
  }
  JOINT Pelvis_RIGMESH
  {
    OFFSET 0 0 0
    CHANNELS 3 Zrotation Xrotation Yrotation
    End Site
    {
      OFFSET 0 0 0
    }
  }
}
MOTION
Frames:	4
Frame Time:	0.00833333
39.9604 95.9971 69.6565 -2.83613 -36.0661 172.417 -7.95139e-016 9.54166e-015 -7.95139e-016 3.6078 44.3108 0.391534 2.19914e-007 9.65792e-006 -6.04198e-007 -69.0936 28.0765 -9.2596 8.77743e-016 1.19271e-015 -36.3503 -16.3607 -51.9282 -22.4803 -3.18055e-015 6.36111e-015 -0 3.18055e-015 4.37326e-015 3.18055e-015 3.18055e-015 0 -0 1.59028e-015 3.18055e-015 -5.96354e-016 70.1381 27.415 2.71859 -6.99543e-015 5.36719e-015 31.3585 -18.9292 -16.6272 -0.577615 -7.95139e-015 -3.18055e-015 -0 -1.59028e-015 5.1684e-015 7.95139e-016 1.59028e-015 1.59028e-015 -1.98785e-016 1.59028e-015 3.18055e-015 -5.96354e-016 -5.45145 -2.56329 -11.137 -3.58716 3.45081 -4.28674 1.59028e-015 3.18055e-015 -5.96354e-016 0.372085 47.2226 0.195001 10.5288 -79.87 4.31138 1.93064e-015 73.7375 -2.83939e-015 -1.08643 1.6859 -4.552 -0.11317 -26.0752 -0.48936 7.95139e-016 -9.54166e-015 -1.59028e-015 -7.95139e-016 -3.18055e-015 -1.59028e-015 -7.95139e-016 -6.36111e-015 -7.95139e-016 35.292 -73.6593 30.8643 -7.95139e-016 74.7366 -0 -10.2497 -26.1092 24.968 0.129842 -27.7376 0.525871 -7.95139e-016 0 -0 -3.97569e-016 1.27222e-014 -1.98785e-015 -7.95139e-016 9.54166e-015 -0 -7.95139e-016 9.54166e-015 -7.95139e-016 
39.8399 96.3287 69.157 -3.01435 -35.585 172.166 2.64834e-031 -9.54166e-015 1.59028e-015 3.09375 43.6792 0.728403 2.19914e-007 9.65792e-006 -6.04198e-007 -68.3031 26.7941 -10.6798 -7.4538e-015 3.97569e-016 -34.602 -16.3843 -51.2674 -21.0649 3.18055e-015 -3.18055e-015 -9.54166e-015 -6.36111e-015 3.97569e-016 3.18055e-015 0 1.59028e-015 -0 1.10348e-032 1.59028e-015 -3.97569e-016 70.8716 26.1413 3.04758 -2.50212e-015 4.37326e-015 29.7756 -17.9443 -15.5416 -0.696111 -3.18055e-015 -1.59028e-015 3.18055e-015 3.18055e-015 1.19271e-015 1.59028e-015 -1.59028e-015 1.59028e-015 -1.98785e-016 5.51738e-033 1.59028e-015 -1.98785e-016 -5.27208 -3.18101 -11.1186 -3.68444 3.14406 -4.27377 5.51738e-033 1.59028e-015 -1.98785e-016 -0.263059 45.3676 0.77835 16.1147 -78.9599 10.1339 -2.19177e-015 70.06 2.33154e-015 -1.017 0.459777 -2.20086 -0.124462 -27.2098 -0.514238 -7.95139e-016 -3.18055e-015 -1.59028e-015 7.95139e-016 0 1.59028e-015 7.95139e-016 3.18055e-015 -0 33.2948 -73.4903 28.5295 3.97569e-016 74.0184 -0 -9.9295 -24.9831 25.9204 0.116979 -26.4542 0.497664 -7.95139e-016 0 3.18055e-015 -1.59028e-015 3.18055e-015 7.95139e-016 3.97569e-016 -3.18055e-015 -0 2.64834e-031 -9.54166e-015 1.59028e-015 
39.6614 96.4444 68.7593 -3.15393 -35.2394 172.313 -0 0 7.95139e-016 3.03698 42.9807 0.6619 2.19914e-007 9.65792e-006 -6.04198e-007 -67.1429 26.0774 -12.5189 1.95945e-016 -5.56597e-015 -32.809 -16.3486 -50.2794 -19.5285 3.18055e-015 1.27222e-014 3.18055e-015 -3.18055e-015 -4.77083e-015 2.38542e-015 3.18055e-015 -1.59028e-015 1.98785e-016 -0 0 1.98785e-016 71.3811 24.4776 3.72032 -7.4271e-016 -1.98785e-015 28.0516 -16.8442 -13.9075 -0.716491 3.18055e-015 -1.27222e-014 9.54166e-015 -3.18055e-015 1.19271e-015 -1.59028e-015 -0 0 3.97569e-016 -0 0 1.98785e-016 -5.24679 -3.58305 -11.2027 -3.81136 2.92302 -4.313 -0 0 1.98785e-016 -0.652825 44.2261 1.13504 19.7645 -78.0594 14.8682 -1.59028e-015 66.1331 -0 -0.945554 -0.416409 -1.41651 -0.123686 -27.1327 -0.512528 -1.19271e-015 -3.18055e-015 -7.95139e-016 -1.98785e-015 0 7.95139e-016 -7.95139e-016 6.36111e-015 -0 30.4328 -73.1572 24.6153 -1.19271e-015 76.0738 -0 -10.3462 -29.1341 26.5475 0.111722 -25.9025 0.485681 8.82781e-032 -7.95139e-016 6.36111e-015 -7.95139e-016 3.18055e-015 -1.59028e-015 -1.19271e-015 6.36111e-015 -0 -0 0 7.95139e-016 
39.4694 96.2534 68.156 -3.35787 -34.7119 172.304 7.95139e-016 3.18055e-015 7.95139e-016 3.09386 42.5126 0.529804 2.19914e-007 9.65792e-006 -6.04198e-007 -66.4415 25.2149 -14.4547 -8.86237e-015 -2.38542e-015 -31.0593 -15.992 -48.5163 -17.5916 -6.36111e-015 -3.18055e-015 -0 -9.54166e-015 -4.77083e-015 4.77083e-015 0 0 -1.98785e-016 -1.59028e-015 3.18055e-015 1.98785e-016 71.3912 22.9338 4.64164 7.86886e-016 -1.59028e-015 26.3267 -15.723 -11.9359 -0.647108 -3.18055e-015 6.36111e-015 -3.18055e-015 -1.76556e-031 1.59028e-015 6.36111e-015 -1.59028e-015 3.18055e-015 -0 -1.59028e-015 3.18055e-015 1.98785e-016 -5.56099 -3.66792 -11.1821 -3.97894 2.6829 -4.38559 -1.59028e-015 3.18055e-015 1.98785e-016 -0.812161 43.3059 1.29643 22.0655 -76.6786 18.8187 2.32885e-015 62.596 -1.72758e-015 -1.02033 -1.07098 -2.99227 -0.108342 -25.5609 -0.478273 -3.97569e-016 -3.18055e-015 7.95139e-016 -9.93923e-016 -6.36111e-015 -0 1.19271e-015 6.36111e-015 -0 27.1975 -71.9805 20.3827 9.28338e-015 77.703 -7.46684e-015 -10.8375 -34.7697 27.4187 0.119156 -26.6766 0.50248 -5.96354e-016 -7.95139e-016 -0 2.38542e-015 0 -2.38542e-015 1.98785e-015 1.27222e-014 -1.59028e-015 7.95139e-016 3.18055e-015 7.95139e-016 
